# xmcd
#
# Track frame offsets: 
#        150
#        14330
#        33526
#        46417
#        62589
#        78699
#        91583
#        103478
#        119650
#        133558
#        147418
#
# Disc length: 2172 seconds
#
# Revision: 2
# Processed by: cddbd v1.5.2PL0 Copyright (c) Steve Scherf et al.
# Submitted via: ExactAudioCopy v1.0b4
#
DISCID=9b087a0b
DTITLE=Elvin Bishop - Big fun
DYEAR=1998
DGENRE=Blues Rock, Modern Electric Blues
TTITLE0=Don't you lie to me
TTITLE1=Beer drinkin' women
TTITLE2=Oklahoma country girl
TTITLE3=My dog
TTITLE4=Midnight hour blues
TTITLE5=No broken hearts
TTITLE6=The right string but the wrong yo-yo
TTITLE7=She puts me in the mood
TTITLE8=Country boy
TTITLE9=Honest I do
TTITLE10=Fishin' again
EXTD=
EXTT0=
EXTT1=
EXTT2=
EXTT3=
EXTT4=
EXTT5=
EXTT6=
EXTT7=
EXTT8=
EXTT9=
EXTT10=
PLAYORDER=
